<?xml version="1.0" encoding="utf-8"?>
<!-- Generator: Adobe Illustrator 22.1.0, SVG Export Plug-In . SVG Version: 6.00 Build 0)  -->
<svg version="1.1" id="Layer_1" xmlns="http://www.w3.org/2000/svg" xmlns:xlink="http://www.w3.org/1999/xlink" x="0px" y="0px"
	 viewBox="0 0 350 359.9" style="enable-background:new 0 0 350 359.9;" xml:space="preserve">
<style type="text/css">
	.st0{fill:url(#SVGID_1_);}
	.st1{fill:url(#SVGID_2_);}
	.st2{fill:url(#SVGID_3_);}
	.st3{fill:#5A4FCF;}
</style>
<g id="Layer_2_1_">
</g>
<linearGradient id="SVGID_1_" gradientUnits="userSpaceOnUse" x1="48.95" y1="307.5" x2="301.05" y2="307.5" gradientTransform="matrix(1 0 0 -1 0 362)">
	<stop  offset="0" style="stop-color:#50C8E2"/>
	<stop  offset="1" style="stop-color:#78F6DC"/>
</linearGradient>
<path class="st0" d="M132.5,30.3C103.3,37.8,76.6,53,54.8,74.8c-7.8,7.8-7.8,20.5,0,28.3s20.5,7.8,28.3,0
	c15.5-15.5,34.3-26.6,54.8-32.7c8,11.8,21.7,19.6,37.1,19.6s29.1-7.8,37.2-19.6c20.5,6.1,39.2,17.2,54.8,32.7
	c3.9,3.9,9,5.9,14.1,5.9s10.2-2,14.1-5.9c7.8-7.8,7.8-20.5,0-28.3c-21.8-21.8-48.5-37-77.7-44.4C211.5,12.7,194.7,0,175,0
	S138.5,12.7,132.5,30.3z"/>
<linearGradient id="SVGID_2_" gradientUnits="userSpaceOnUse" x1="193.9356" y1="113.8822" x2="350.0299" y2="113.8822" gradientTransform="matrix(1 0 0 -1 0 362)">
	<stop  offset="0" style="stop-color:#67E3DF"/>
	<stop  offset="1" style="stop-color:#80FFDB"/>
</linearGradient>
<path class="st1" d="M296.3,314.1c18.4,3.6,37.8-4.5,47.7-21.6c9.9-17.1,7.2-38.1-5.1-52.1c4-14.5,6.2-29.7,6.2-45.3
	c0-14.9-1.9-29.7-5.8-44c-2.9-10.7-13.8-17-24.5-14.2c-10.7,2.9-17,13.8-14.2,24.5c2.9,10.9,4.4,22.3,4.4,33.7
	c0,10.3-1.2,20.4-3.5,30.1c-14.3,1.1-27.7,9-35.4,22.4c-7.7,13.3-7.8,29-1.6,41.9c-15.3,14.6-34.3,25.5-55.7,31.2
	c-10.7,2.9-17,13.8-14.2,24.5c2.4,8.9,10.5,14.8,19.3,14.8l0,0c1.7,0,3.4-0.2,5.2-0.7C249.1,351.2,275.5,335.3,296.3,314.1z"/>
<linearGradient id="SVGID_3_" gradientUnits="userSpaceOnUse" x1="3.995275e-02" y1="114.0492" x2="156.1985" y2="114.0492" gradientTransform="matrix(1 0 0 -1 0 362)">
	<stop  offset="0" style="stop-color:#48BFE3"/>
	<stop  offset="1" style="stop-color:#61DBDF"/>
</linearGradient>
<path class="st2" d="M155.5,345.1c2.9-10.7-3.5-21.6-14.2-24.5c-21.4-5.7-40.4-16.7-55.7-31.2c6.1-12.9,6.1-28.5-1.6-41.9
	c-7.7-13.3-21.2-21.2-35.4-22.4c-2.3-9.7-3.6-19.8-3.6-30.2c0-11.4,1.5-22.7,4.4-33.7c2.9-10.7-3.5-21.6-14.2-24.5
	s-21.6,3.5-24.5,14.2C6.9,165.3,5,180.1,5,195c0,15.6,2.1,30.8,6.2,45.4c-12.4,14.1-15,35-5.1,52.1s29.3,25.3,47.7,21.6
	c20.8,21.2,47.2,37.1,77.2,45.1c1.7,0.5,3.5,0.7,5.2,0.7l0,0C145,359.9,153.1,354,155.5,345.1z"/>
<path class="st3" d="M175,260c-35.8,0-65-29.2-65-65s29.2-65,65-65c17.4,0,33.7,6.8,46,19c5.9,5.9,5.9,15.4,0,21.2
	c-5.9,5.9-15.4,5.9-21.2,0c-6.6-6.6-15.4-10.3-24.7-10.3c-19.3,0-35,15.7-35,35s15.7,35,35,35c9.3,0,18.1-3.6,24.7-10.3
	c5.9-5.9,15.4-5.9,21.2,0c5.9,5.9,5.9,15.4,0,21.2C208.7,253.2,192.4,260,175,260z"/>
</svg>
